<?xml version="1.0" standalone="no"?><!DOCTYPE svg PUBLIC "-//W3C//DTD SVG 1.1//EN" "http://www.w3.org/Graphics/SVG/1.1/DTD/svg11.dtd"><svg t="1559061808244" class="icon" style="" viewBox="0 0 1024 1024" version="1.1" xmlns="http://www.w3.org/2000/svg" p-id="2854" xmlns:xlink="http://www.w3.org/1999/xlink" width="48" height="48"><defs><style type="text/css"></style></defs><path d="M551.32417 505.22146m-421.029397 0a421.029396 421.029396 0 1 0 842.058793 0 421.029396 421.029396 0 1 0-842.058793 0Z" fill="#1296db" p-id="2855" data-spm-anchor-id="a313x.7781069.0.i2" class="selected"></path><path d="M440.60513 1024l8.635084-68.838885a477.554652 477.554652 0 1 1 219.331118-22.088543l-227.966202 90.927428z m71.39487-960.031302C282.928508 63.968698 96.583408 250.486499 96.583408 479.627072c0 219.624711 171.458216 401.894052 390.305769 414.984838l34.056769 2.00334-3.454033 27.874049 123.516233-49.254516 0.604456-0.500835 5.388292-1.899718a415.675645 415.675645 0 0 0 280.398428-393.207158c0-229.140573-186.32783-415.658375-415.399322-415.658374z m5.889127 672.172162a283.230735 283.230735 0 0 1-125.018738-29.082961 269.017388 269.017388 0 0 1-94.571433-78.043884l50.929722-38.667903c38.840605 51.257855 101.893984 81.84332 168.76407 81.84332s129.923465-30.568195 168.660449-81.84332l50.929722 38.667903a271.141619 271.141619 0 0 1-94.571434 78.043884 283.351627 283.351627 0 0 1-125.122358 29.082961z" fill="#515151" p-id="2856"></path><path d="M411.60852 374.969862l-44.004385 34.402172c-3.954868-4.697485-31.604405-36.422782-76.558649-36.353701-36.26735 0-69.961446 20.7242-88.077851 53.537517l-42.052856-30.533655c22.105814-50.083484 70.42774-83.622148 124.345201-86.126322 79.511848-3.678546 124.29339 61.930818 126.34854 65.073989zM738.532778 309.895873c53.969271 2.504174 102.291198 35.973757 124.345201 86.126322l-42.052856 30.620006c-18.081865-32.813317-51.8105-53.537517-88.077851-53.537517-44.902434 0-72.534701 31.656216-76.558649 36.353701l-44.021656-34.453983c2.176041-3.177711 46.905773-68.787074 126.365811-65.108529z" fill="#515151" p-id="2857"></path></svg>